<svg width="40" height="36" viewBox="0 0 40 36" fill="none" xmlns="http://www.w3.org/2000/svg">
<rect width="39.4286" height="36" rx="10" fill="#4468A5"/>
<path d="M29.143 18.0578C29.143 12.8186 24.9219 8.57153 19.7156 8.57153C14.507 8.57271 10.2859 12.8186 10.2859 18.059C10.2859 22.7928 13.734 26.7169 18.2403 27.4287V20.8H15.8481V18.059H18.2426V15.9673C18.2426 13.5904 19.6508 12.2777 21.8038 12.2777C22.8361 12.2777 23.9144 12.4627 23.9144 12.4627V14.796H22.7253C21.5552 14.796 21.1898 15.5278 21.1898 16.2784V18.0578H23.8036L23.3864 20.7989H21.1887V27.4275C25.695 26.7157 29.143 22.7916 29.143 18.0578Z" fill="#FAFAFA"/>
</svg>
