<svg width="17" height="17" viewBox="0 0 17 17" fill="none" xmlns="http://www.w3.org/2000/svg">
<path d="M15.4553 5.40852C15.8652 5.40852 16.2583 5.57136 16.5482 5.8612C16.838 6.15104 17.0008 6.54415 17.0008 6.95405V10.0451C17.0008 10.455 16.838 10.8481 16.5482 11.138C16.2583 11.4278 15.8652 11.5906 15.4553 11.5906H14.6346C14.4462 13.0846 13.7191 14.4585 12.5897 15.4545C11.4603 16.4504 10.0062 17 8.50042 17V15.4545C9.73012 15.4545 10.9095 14.966 11.779 14.0964C12.6485 13.2269 13.137 12.0476 13.137 10.8179V6.18129C13.137 4.95159 12.6485 3.77225 11.779 2.90272C10.9095 2.0332 9.73012 1.5447 8.50042 1.5447C7.27072 1.5447 6.09138 2.0332 5.22185 2.90272C4.35232 3.77225 3.86383 4.95159 3.86383 6.18129V11.5906H1.54553C1.13563 11.5906 0.742518 11.4278 0.452675 11.138C0.162832 10.8481 0 10.455 0 10.0451V6.95405C0 6.54415 0.162832 6.15104 0.452675 5.8612C0.742518 5.57136 1.13563 5.40852 1.54553 5.40852H2.36621C2.55479 3.91469 3.282 2.541 4.41139 1.54522C5.54078 0.549438 6.99472 0 8.50042 0C10.0061 0 11.4601 0.549438 12.5894 1.54522C13.7188 2.541 14.446 3.91469 14.6346 5.40852H15.4553ZM5.22389 11.4245L6.04302 10.1139C6.77953 10.5753 7.63134 10.8193 8.50042 10.8179C9.36949 10.8193 10.2213 10.5753 10.9578 10.1139L11.7769 11.4245C10.795 12.0397 9.65921 12.3652 8.50042 12.3634C7.34162 12.3652 6.20588 12.0397 5.22389 11.4245Z" fill="#585858"/>
</svg>
