<svg width="15" height="17" viewBox="0 0 15 17" fill="none" xmlns="http://www.w3.org/2000/svg">
<mask id="path-1-inside-1_304_189" fill="white">
<path d="M6.64125 0.708988C6.87334 0.489567 7.18061 0.36731 7.5 0.36731C7.81939 0.36731 8.12666 0.489567 8.35875 0.708988L14.4137 6.43274C14.7888 6.78649 15 7.28024 15 7.79524V14.7577C15 15.255 14.8025 15.7319 14.4508 16.0836C14.0992 16.4352 13.6223 16.6327 13.125 16.6327H10.625C10.3787 16.6327 10.1347 16.5842 9.90718 16.4899C9.67961 16.3956 9.47286 16.2574 9.29873 16.0831C9.12461 15.9089 8.98652 15.702 8.89237 15.4744C8.79821 15.2468 8.74984 15.0028 8.75 14.7565V11.6315C8.75 11.4657 8.68415 11.3068 8.56694 11.1895C8.44973 11.0723 8.29076 11.0065 8.125 11.0065H6.875C6.70924 11.0065 6.55027 11.0723 6.43306 11.1895C6.31585 11.3068 6.25 11.4657 6.25 11.6315V14.7565C6.25 15.2538 6.05246 15.7307 5.70083 16.0823C5.34919 16.4339 4.87228 16.6315 4.375 16.6315H1.875C1.37772 16.6315 0.900806 16.4339 0.549175 16.0823C0.197544 15.7307 0 15.2538 0 14.7565V7.79399C0 7.27899 0.2125 6.78524 0.5875 6.43149L6.64125 0.706488V0.708988ZM7.5 1.61649L1.445 7.34149C1.38353 7.39976 1.33455 7.46992 1.30103 7.54771C1.26751 7.6255 1.25014 7.70929 1.25 7.79399V14.7565C1.25 14.9222 1.31585 15.0812 1.43306 15.1984C1.55027 15.3156 1.70924 15.3815 1.875 15.3815H4.375C4.54076 15.3815 4.69973 15.3156 4.81694 15.1984C4.93415 15.0812 5 14.9222 5 14.7565V11.6315C5 11.1342 5.19754 10.6573 5.54917 10.3057C5.90081 9.95403 6.37772 9.75649 6.875 9.75649H8.125C8.62228 9.75649 9.09919 9.95403 9.45083 10.3057C9.80246 10.6573 10 11.1342 10 11.6315V14.7565C10 14.9222 10.0658 15.0812 10.1831 15.1984C10.3003 15.3156 10.4592 15.3815 10.625 15.3815H13.125C13.2908 15.3815 13.4497 15.3156 13.5669 15.1984C13.6842 15.0812 13.75 14.9222 13.75 14.7565V7.79399C13.75 7.70908 13.7327 7.62505 13.6992 7.54704C13.6657 7.46902 13.6166 7.39866 13.555 7.34024L7.5 1.61649Z"/>
</mask>
<path d="M6.64125 0.708988C6.87334 0.489567 7.18061 0.36731 7.5 0.36731C7.81939 0.36731 8.12666 0.489567 8.35875 0.708988L14.4137 6.43274C14.7888 6.78649 15 7.28024 15 7.79524V14.7577C15 15.255 14.8025 15.7319 14.4508 16.0836C14.0992 16.4352 13.6223 16.6327 13.125 16.6327H10.625C10.3787 16.6327 10.1347 16.5842 9.90718 16.4899C9.67961 16.3956 9.47286 16.2574 9.29873 16.0831C9.12461 15.9089 8.98652 15.702 8.89237 15.4744C8.79821 15.2468 8.74984 15.0028 8.75 14.7565V11.6315C8.75 11.4657 8.68415 11.3068 8.56694 11.1895C8.44973 11.0723 8.29076 11.0065 8.125 11.0065H6.875C6.70924 11.0065 6.55027 11.0723 6.43306 11.1895C6.31585 11.3068 6.25 11.4657 6.25 11.6315V14.7565C6.25 15.2538 6.05246 15.7307 5.70083 16.0823C5.34919 16.4339 4.87228 16.6315 4.375 16.6315H1.875C1.37772 16.6315 0.900806 16.4339 0.549175 16.0823C0.197544 15.7307 0 15.2538 0 14.7565V7.79399C0 7.27899 0.2125 6.78524 0.5875 6.43149L6.64125 0.706488V0.708988ZM7.5 1.61649L1.445 7.34149C1.38353 7.39976 1.33455 7.46992 1.30103 7.54771C1.26751 7.6255 1.25014 7.70929 1.25 7.79399V14.7565C1.25 14.9222 1.31585 15.0812 1.43306 15.1984C1.55027 15.3156 1.70924 15.3815 1.875 15.3815H4.375C4.54076 15.3815 4.69973 15.3156 4.81694 15.1984C4.93415 15.0812 5 14.9222 5 14.7565V11.6315C5 11.1342 5.19754 10.6573 5.54917 10.3057C5.90081 9.95403 6.37772 9.75649 6.875 9.75649H8.125C8.62228 9.75649 9.09919 9.95403 9.45083 10.3057C9.80246 10.6573 10 11.1342 10 11.6315V14.7565C10 14.9222 10.0658 15.0812 10.1831 15.1984C10.3003 15.3156 10.4592 15.3815 10.625 15.3815H13.125C13.2908 15.3815 13.4497 15.3156 13.5669 15.1984C13.6842 15.0812 13.75 14.9222 13.75 14.7565V7.79399C13.75 7.70908 13.7327 7.62505 13.6992 7.54704C13.6657 7.46902 13.6166 7.39866 13.555 7.34024L7.5 1.61649Z" fill="#585858"/>
<path d="M6.64125 0.708988H3.64125V7.67376L8.70225 2.88896L6.64125 0.708988ZM7.5 0.36731V3.36731V0.36731ZM8.35875 0.708988L6.29775 2.88896L6.2979 2.8891L8.35875 0.708988ZM14.4137 6.43274L12.3529 8.61285L12.3552 8.61499L14.4137 6.43274ZM15 14.7577H18H15ZM10.625 16.6327V13.6327H10.625L10.625 16.6327ZM8.75 14.7565L11.75 14.7585V14.7565H8.75ZM6.25 14.7565H9.25H6.25ZM4.375 16.6315V19.6315V16.6315ZM1.875 16.6315V19.6315V16.6315ZM0 14.7565H-3H0ZM0.5875 6.43149L2.64609 8.61374L2.64881 8.61117L0.5875 6.43149ZM6.64125 0.706488H9.64125V-6.25965L4.57994 -1.47319L6.64125 0.706488ZM7.5 1.61649L9.56085 -0.563628L7.49977 -2.51195L5.43891 -0.563403L7.5 1.61649ZM1.445 7.34149L-0.616088 5.1616L-0.618996 5.16435L1.445 7.34149ZM1.25 7.79399L-1.75 7.78885V7.79399H1.25ZM6.875 9.75649V6.75649V9.75649ZM8.125 9.75649V6.75649V9.75649ZM10 11.6315H13H10ZM13.75 7.79399L10.75 7.79312V7.79399H13.75ZM13.555 7.34024L15.619 5.1631L15.6158 5.16012L13.555 7.34024ZM8.70225 2.88896C8.37733 3.19615 7.94715 3.36731 7.5 3.36731V-2.63269C6.41408 -2.63269 5.36934 -2.21701 4.58025 -1.47098L8.70225 2.88896ZM7.5 3.36731C7.05286 3.36731 6.62267 3.19615 6.29775 2.88896L10.4198 -1.47098C9.63066 -2.21701 8.58592 -2.63269 7.5 -2.63269V3.36731ZM6.2979 2.8891L12.3529 8.61285L16.4746 4.25262L10.4196 -1.47113L6.2979 2.8891ZM12.3552 8.61499C12.1246 8.3975 12 8.09974 12 7.79524H18C18 6.46074 17.4529 5.17548 16.4723 4.25049L12.3552 8.61499ZM12 7.79524V14.7577H18V7.79524H12ZM12 14.7577C12 14.4594 12.1185 14.1732 12.3295 13.9622L16.5721 18.2049C17.4864 17.2906 18 16.0507 18 14.7577H12ZM12.3295 13.9622C12.5405 13.7513 12.8266 13.6327 13.125 13.6327V19.6327C14.4179 19.6327 15.6579 19.1191 16.5721 18.2049L12.3295 13.9622ZM13.125 13.6327H10.625V19.6327H13.125V13.6327ZM10.625 13.6327C10.7728 13.6327 10.9192 13.6619 11.0557 13.7184L8.75867 19.2613C9.35034 19.5065 9.98453 19.6327 10.625 19.6327L10.625 13.6327ZM11.0557 13.7184C11.1922 13.775 11.3163 13.858 11.4208 13.9625L7.1767 18.2037C7.62944 18.6568 8.167 19.0161 8.75867 19.2613L11.0557 13.7184ZM11.4208 13.9625C11.5252 14.0671 11.6081 14.1912 11.6646 14.3277L6.12015 16.6211C6.36495 17.2129 6.72397 17.7507 7.1767 18.2037L11.4208 13.9625ZM11.6646 14.3277C11.7211 14.4643 11.7501 14.6107 11.75 14.7585L5.75 14.7545C5.74957 15.395 5.87535 16.0292 6.12015 16.6211L11.6646 14.3277ZM11.75 14.7565V11.6315H5.75V14.7565H11.75ZM11.75 11.6315C11.75 10.6701 11.3681 9.74805 10.6883 9.06823L6.44562 13.3109C6.00022 12.8655 5.75 12.2614 5.75 11.6315H11.75ZM10.6883 9.06823C10.0084 8.3884 9.0864 8.00649 8.125 8.00649V14.0065C7.49512 14.0065 6.89103 13.7563 6.44562 13.3109L10.6883 9.06823ZM8.125 8.00649H6.875V14.0065H8.125V8.00649ZM6.875 8.00649C5.9136 8.00649 4.99156 8.3884 4.31174 9.06823L8.55438 13.3109C8.10898 13.7563 7.50488 14.0065 6.875 14.0065V8.00649ZM4.31174 9.06823C3.63192 9.74805 3.25 10.6701 3.25 11.6315H9.25C9.25 12.2614 8.99978 12.8655 8.55438 13.3109L4.31174 9.06823ZM3.25 11.6315V14.7565H9.25V11.6315H3.25ZM3.25 14.7565C3.25 14.4581 3.36853 14.172 3.5795 13.961L7.82215 18.2036C8.73639 17.2894 9.25 16.0494 9.25 14.7565H3.25ZM3.5795 13.961C3.79048 13.75 4.07663 13.6315 4.375 13.6315V19.6315C5.66793 19.6315 6.90791 19.1179 7.82215 18.2036L3.5795 13.961ZM4.375 13.6315H1.875V19.6315H4.375V13.6315ZM1.875 13.6315C2.17337 13.6315 2.45952 13.75 2.6705 13.961L-1.57215 18.2036C-0.657905 19.1179 0.58207 19.6315 1.875 19.6315V13.6315ZM2.6705 13.961C2.88147 14.172 3 14.4581 3 14.7565H-3C-3 16.0494 -2.48639 17.2894 -1.57215 18.2036L2.6705 13.961ZM3 14.7565V7.79399H-3V14.7565H3ZM3 7.79399C3 8.10345 2.87305 8.39964 2.64609 8.61374L-1.47109 4.24924C-2.44805 5.17084 -3 6.45453 -3 7.79399H3ZM2.64881 8.61117L8.70256 2.88617L4.57994 -1.47319L-1.47381 4.25181L2.64881 8.61117ZM3.64125 0.706488V0.708988H9.64125V0.706488H3.64125ZM5.43891 -0.563403L-0.616086 5.1616L3.50609 9.52138L9.56109 3.79638L5.43891 -0.563403ZM-0.618996 5.16435C-0.975523 5.50235 -1.25962 5.90929 -1.45404 6.36044L4.05609 8.73498C3.92872 9.03056 3.74258 9.29718 3.509 9.51862L-0.618996 5.16435ZM-1.45404 6.36044C-1.64846 6.81161 -1.74915 7.29758 -1.75 7.78885L4.25 7.79912C4.24944 8.12099 4.18348 8.43939 4.05609 8.73498L-1.45404 6.36044ZM-1.75 7.79399V14.7565H4.25V7.79399H-1.75ZM-1.75 14.7565C-1.75 15.7179 -1.36808 16.6399 -0.688262 17.3198L3.55438 13.0771C3.99978 13.5225 4.25 14.1266 4.25 14.7565H-1.75ZM-0.688262 17.3198C-0.00843902 17.9996 0.913595 18.3815 1.875 18.3815V12.3815C2.50488 12.3815 3.10898 12.6317 3.55438 13.0771L-0.688262 17.3198ZM1.875 18.3815H4.375V12.3815H1.875V18.3815ZM4.375 18.3815C5.3364 18.3815 6.25844 17.9996 6.93826 17.3198L2.69562 13.0771C3.14102 12.6317 3.74512 12.3815 4.375 12.3815V18.3815ZM6.93826 17.3198C7.61808 16.6399 8 15.7179 8 14.7565H2C2 14.1266 2.25022 13.5225 2.69562 13.0771L6.93826 17.3198ZM8 14.7565V11.6315H2V14.7565H8ZM8 11.6315C8 11.9299 7.88147 12.216 7.6705 12.427L3.42785 8.18434C2.51361 9.09858 2 10.3386 2 11.6315H8ZM7.6705 12.427C7.45952 12.638 7.17337 12.7565 6.875 12.7565V6.75649C5.58207 6.75649 4.34209 7.2701 3.42785 8.18434L7.6705 12.427ZM6.875 12.7565H8.125V6.75649H6.875V12.7565ZM8.125 12.7565C7.82663 12.7565 7.54048 12.638 7.3295 12.427L11.5721 8.18434C10.6579 7.2701 9.41793 6.75649 8.125 6.75649V12.7565ZM7.3295 12.427C7.11853 12.216 7 11.9299 7 11.6315H13C13 10.3386 12.4864 9.09858 11.5721 8.18434L7.3295 12.427ZM7 11.6315V14.7565H13V11.6315H7ZM7 14.7565C7 15.7179 7.38191 16.6399 8.06174 17.3198L12.3044 13.0771C12.7498 13.5225 13 14.1266 13 14.7565H7ZM8.06174 17.3198C8.74156 17.9996 9.6636 18.3815 10.625 18.3815V12.3815C11.2549 12.3815 11.859 12.6317 12.3044 13.0771L8.06174 17.3198ZM10.625 18.3815H13.125V12.3815H10.625V18.3815ZM13.125 18.3815C14.0864 18.3815 15.0084 17.9996 15.6883 17.3198L11.4456 13.0771C11.891 12.6317 12.4951 12.3815 13.125 12.3815V18.3815ZM15.6883 17.3198C16.3681 16.6399 16.75 15.7179 16.75 14.7565H10.75C10.75 14.1266 11.0002 13.5225 11.4456 13.0771L15.6883 17.3198ZM16.75 14.7565V7.79399H10.75V14.7565H16.75ZM16.75 7.79486C16.7501 7.30237 16.6499 6.81502 16.4555 6.36253L10.943 8.73154C10.8156 8.43508 10.7499 8.11578 10.75 7.79312L16.75 7.79486ZM16.4555 6.36253C16.261 5.91004 15.9764 5.50193 15.619 5.16311L11.491 9.51737C11.2568 9.29538 11.0704 9.028 10.943 8.73154L16.4555 6.36253ZM15.6158 5.16012L9.56085 -0.563628L5.43915 3.7966L11.4942 9.52035L15.6158 5.16012Z" fill="#585858" mask="url(#path-1-inside-1_304_189)"/>
</svg>
