<svg width="29" height="36" viewBox="0 0 29 36" fill="none" xmlns="http://www.w3.org/2000/svg">
<path d="M14.387 0.735596C11.7893 0.735596 9.54136 1.58982 7.64308 3.29828C5.7448 5.00673 4.79566 7.0299 4.79566 9.36778V13.6839C3.44688 13.6839 2.31041 14.0997 1.38625 14.9315C0.462082 15.7632 0 16.7861 0 18V30.9482C0 32.1622 0.462082 33.185 1.38625 34.0167C2.31041 34.8485 3.44688 35.2643 4.79566 35.2643H23.9783C25.3271 35.2643 26.4635 34.8485 27.3877 34.0167C28.3119 33.185 28.774 32.1622 28.774 30.9482V18C28.774 16.7861 28.3119 15.7632 27.3877 14.9315C26.4635 14.0997 25.3271 13.6839 23.9783 13.6839V9.36778C23.9783 7.0299 23.0292 5.00673 21.1309 3.29828C19.2326 1.58982 16.9846 0.735596 14.387 0.735596ZM25.5519 18V30.9482C25.5519 31.8924 25.0273 32.3645 23.9783 32.3645H4.79566C3.74661 32.3645 3.22208 31.8924 3.22208 30.9482V18C3.22208 17.0558 3.74661 16.5838 4.79566 16.5838H23.9783C25.0273 16.5838 25.5519 17.0558 25.5519 18ZM8.01774 13.6839V9.36778C8.01774 7.79421 8.64218 6.44543 9.89105 5.32144C11.1399 4.19746 12.6386 3.63547 14.387 3.63547C16.1354 3.63547 17.634 4.19746 18.8829 5.32144C20.1318 6.44543 20.7562 7.79421 20.7562 9.36778V13.6839H8.01774ZM14.387 18C13.0382 18 11.9017 18.4158 10.9776 19.2476C10.0534 20.0793 9.59132 21.1022 9.59132 22.3161C9.59132 23.2152 9.89105 24.0358 10.4905 24.7776C11.09 25.5194 11.8643 26.0477 12.8134 26.3624V28.0484C12.8134 29.0375 13.3379 29.532 14.387 29.532C15.436 29.532 15.9606 29.0375 15.9606 28.0484V26.3624C18.1086 25.688 19.1826 24.3392 19.1826 22.3161C19.1826 21.1022 18.7206 20.0793 17.7964 19.2476C16.8722 18.4158 15.7358 18 14.387 18ZM14.387 23.7323C13.3379 23.7323 12.8134 23.2602 12.8134 22.3161C12.8134 21.3719 13.3379 20.8998 14.387 20.8998C15.436 20.8998 15.9606 21.3719 15.9606 22.3161C15.9606 23.2602 15.436 23.7323 14.387 23.7323Z" fill="#585858"/>
</svg>
