<svg width="242" height="36" viewBox="0 0 242 36" fill="none" xmlns="http://www.w3.org/2000/svg">
<rect y="24" width="242" height="6" fill="#01DEE6"/>
<path d="M11.4984 26.168C9.93041 26.168 8.49041 25.8 7.17841 25.064C5.86641 24.328 4.82641 23.312 4.05841 22.016C3.29041 20.704 2.90641 19.224 2.90641 17.576C2.90641 15.944 3.29041 14.48 4.05841 13.184C4.82641 11.872 5.86641 10.848 7.17841 10.112C8.49041 9.376 9.93041 9.008 11.4984 9.008C13.0824 9.008 14.5224 9.376 15.8184 10.112C17.1304 10.848 18.1624 11.872 18.9144 13.184C19.6824 14.48 20.0664 15.944 20.0664 17.576C20.0664 19.224 19.6824 20.704 18.9144 22.016C18.1624 23.312 17.1304 24.328 15.8184 25.064C14.5064 25.8 13.0664 26.168 11.4984 26.168ZM11.4984 23.168C12.5064 23.168 13.3944 22.944 14.1624 22.496C14.9304 22.032 15.5304 21.376 15.9624 20.528C16.3944 19.68 16.6104 18.696 16.6104 17.576C16.6104 16.456 16.3944 15.48 15.9624 14.648C15.5304 13.8 14.9304 13.152 14.1624 12.704C13.3944 12.256 12.5064 12.032 11.4984 12.032C10.4904 12.032 9.59441 12.256 8.81041 12.704C8.04241 13.152 7.44241 13.8 7.01041 14.648C6.57841 15.48 6.36241 16.456 6.36241 17.576C6.36241 18.696 6.57841 19.68 7.01041 20.528C7.44241 21.376 8.04241 22.032 8.81041 22.496C9.59441 22.944 10.4904 23.168 11.4984 23.168ZM25.9262 14.768C26.3582 14.064 26.9182 13.512 27.6062 13.112C28.3102 12.712 29.1102 12.512 30.0062 12.512V16.04H29.1182C28.0622 16.04 27.2622 16.288 26.7182 16.784C26.1902 17.28 25.9262 18.144 25.9262 19.376V26H22.5662V12.704H25.9262V14.768ZM31.4053 19.304C31.4053 17.96 31.6693 16.768 32.1973 15.728C32.7413 14.688 33.4773 13.888 34.4053 13.328C35.3333 12.768 36.3653 12.488 37.5013 12.488C38.3653 12.488 39.1893 12.68 39.9733 13.064C40.7573 13.432 41.3813 13.928 41.8453 14.552V8.24H45.2533V26H41.8453V24.032C41.4293 24.688 40.8453 25.216 40.0933 25.616C39.3413 26.016 38.4693 26.216 37.4773 26.216C36.3573 26.216 35.3333 25.928 34.4053 25.352C33.4773 24.776 32.7413 23.968 32.1973 22.928C31.6693 21.872 31.4053 20.664 31.4053 19.304ZM41.8693 19.352C41.8693 18.536 41.7093 17.84 41.3893 17.264C41.0693 16.672 40.6373 16.224 40.0933 15.92C39.5493 15.6 38.9653 15.44 38.3413 15.44C37.7173 15.44 37.1413 15.592 36.6133 15.896C36.0853 16.2 35.6533 16.648 35.3173 17.24C34.9973 17.816 34.8373 18.504 34.8373 19.304C34.8373 20.104 34.9973 20.808 35.3173 21.416C35.6533 22.008 36.0853 22.464 36.6133 22.784C37.1573 23.104 37.7333 23.264 38.3413 23.264C38.9653 23.264 39.5493 23.112 40.0933 22.808C40.6373 22.488 41.0693 22.04 41.3893 21.464C41.7093 20.872 41.8693 20.168 41.8693 19.352ZM60.8949 19.064C60.8949 19.544 60.8629 19.976 60.7989 20.36H51.0789C51.1589 21.32 51.4949 22.072 52.0869 22.616C52.6789 23.16 53.4069 23.432 54.2709 23.432C55.5189 23.432 56.4069 22.896 56.9349 21.824H60.5589C60.1749 23.104 59.4389 24.16 58.3509 24.992C57.2629 25.808 55.9269 26.216 54.3429 26.216C53.0629 26.216 51.9109 25.936 50.8869 25.376C49.8789 24.8 49.0869 23.992 48.5109 22.952C47.9509 21.912 47.6709 20.712 47.6709 19.352C47.6709 17.976 47.9509 16.768 48.5109 15.728C49.0709 14.688 49.8549 13.888 50.8629 13.328C51.8709 12.768 53.0309 12.488 54.3429 12.488C55.6069 12.488 56.7349 12.76 57.7269 13.304C58.7349 13.848 59.5109 14.624 60.0549 15.632C60.6149 16.624 60.8949 17.768 60.8949 19.064ZM57.4149 18.104C57.3989 17.24 57.0869 16.552 56.4789 16.04C55.8709 15.512 55.1269 15.248 54.2469 15.248C53.4149 15.248 52.7109 15.504 52.1349 16.016C51.5749 16.512 51.2309 17.208 51.1029 18.104H57.4149ZM66.7074 14.768C67.1394 14.064 67.6994 13.512 68.3874 13.112C69.0914 12.712 69.8914 12.512 70.7874 12.512V16.04H69.8994C68.8434 16.04 68.0434 16.288 67.4994 16.784C66.9714 17.28 66.7074 18.144 66.7074 19.376V26H63.3474V12.704H66.7074V14.768ZM77.9533 17.6C77.9533 15.952 78.3213 14.48 79.0573 13.184C79.8093 11.872 80.8253 10.856 82.1053 10.136C83.4013 9.4 84.8493 9.032 86.4493 9.032C88.3213 9.032 89.9613 9.512 91.3693 10.472C92.7773 11.432 93.7613 12.76 94.3213 14.456H90.4573C90.0733 13.656 89.5293 13.056 88.8253 12.656C88.1373 12.256 87.3373 12.056 86.4253 12.056C85.4493 12.056 84.5773 12.288 83.8093 12.752C83.0573 13.2 82.4653 13.84 82.0333 14.672C81.6173 15.504 81.4093 16.48 81.4093 17.6C81.4093 18.704 81.6173 19.68 82.0333 20.528C82.4653 21.36 83.0573 22.008 83.8093 22.472C84.5773 22.92 85.4493 23.144 86.4253 23.144C87.3373 23.144 88.1373 22.944 88.8253 22.544C89.5293 22.128 90.0733 21.52 90.4573 20.72H94.3213C93.7613 22.432 92.7773 23.768 91.3693 24.728C89.9773 25.672 88.3373 26.144 86.4493 26.144C84.8493 26.144 83.4013 25.784 82.1053 25.064C80.8253 24.328 79.8093 23.312 79.0573 22.016C78.3213 20.72 77.9533 19.248 77.9533 17.6ZM103.095 26.216C101.815 26.216 100.663 25.936 99.6392 25.376C98.6152 24.8 97.8072 23.992 97.2152 22.952C96.6392 21.912 96.3512 20.712 96.3512 19.352C96.3512 17.992 96.6472 16.792 97.2392 15.752C97.8472 14.712 98.6712 13.912 99.7112 13.352C100.751 12.776 101.911 12.488 103.191 12.488C104.471 12.488 105.631 12.776 106.671 13.352C107.711 13.912 108.527 14.712 109.119 15.752C109.727 16.792 110.031 17.992 110.031 19.352C110.031 20.712 109.719 21.912 109.095 22.952C108.487 23.992 107.655 24.8 106.599 25.376C105.559 25.936 104.391 26.216 103.095 26.216ZM103.095 23.288C103.703 23.288 104.271 23.144 104.799 22.856C105.343 22.552 105.775 22.104 106.095 21.512C106.415 20.92 106.575 20.2 106.575 19.352C106.575 18.088 106.239 17.12 105.567 16.448C104.911 15.76 104.103 15.416 103.143 15.416C102.183 15.416 101.375 15.76 100.719 16.448C100.079 17.12 99.7592 18.088 99.7592 19.352C99.7592 20.616 100.071 21.592 100.695 22.28C101.335 22.952 102.135 23.288 103.095 23.288ZM119.864 12.512C121.448 12.512 122.728 13.016 123.704 14.024C124.68 15.016 125.168 16.408 125.168 18.2V26H121.808V18.656C121.808 17.6 121.544 16.792 121.016 16.232C120.488 15.656 119.768 15.368 118.856 15.368C117.928 15.368 117.192 15.656 116.648 16.232C116.12 16.792 115.856 17.6 115.856 18.656V26H112.496V12.704H115.856V14.36C116.304 13.784 116.872 13.336 117.56 13.016C118.264 12.68 119.032 12.512 119.864 12.512ZM134.459 15.464H132.131V26H128.723V15.464H127.211V12.704H128.723V12.032C128.723 10.4 129.187 9.2 130.115 8.432C131.043 7.664 132.443 7.304 134.315 7.352V10.184C133.499 10.168 132.931 10.304 132.611 10.592C132.291 10.88 132.131 11.4 132.131 12.152V12.704H134.459V15.464ZM138.34 11.12C137.748 11.12 137.252 10.936 136.852 10.568C136.468 10.184 136.276 9.712 136.276 9.152C136.276 8.592 136.468 8.128 136.852 7.76C137.252 7.376 137.748 7.184 138.34 7.184C138.932 7.184 139.42 7.376 139.804 7.76C140.204 8.128 140.404 8.592 140.404 9.152C140.404 9.712 140.204 10.184 139.804 10.568C139.42 10.936 138.932 11.12 138.34 11.12ZM139.996 12.704V26H136.636V12.704H139.996ZM146.676 14.768C147.108 14.064 147.668 13.512 148.356 13.112C149.06 12.712 149.86 12.512 150.756 12.512V16.04H149.868C148.812 16.04 148.012 16.288 147.468 16.784C146.94 17.28 146.676 18.144 146.676 19.376V26H143.316V12.704H146.676V14.768ZM169.531 12.512C171.163 12.512 172.475 13.016 173.467 14.024C174.475 15.016 174.979 16.408 174.979 18.2V26H171.619V18.656C171.619 17.616 171.355 16.824 170.827 16.28C170.299 15.72 169.579 15.44 168.667 15.44C167.755 15.44 167.027 15.72 166.483 16.28C165.955 16.824 165.691 17.616 165.691 18.656V26H162.331V18.656C162.331 17.616 162.067 16.824 161.539 16.28C161.011 15.72 160.291 15.44 159.379 15.44C158.451 15.44 157.715 15.72 157.171 16.28C156.643 16.824 156.379 17.616 156.379 18.656V26H153.019V12.704H156.379V14.312C156.811 13.752 157.363 13.312 158.035 12.992C158.723 12.672 159.475 12.512 160.291 12.512C161.331 12.512 162.259 12.736 163.075 13.184C163.891 13.616 164.523 14.24 164.971 15.056C165.403 14.288 166.027 13.672 166.843 13.208C167.675 12.744 168.571 12.512 169.531 12.512ZM177.304 19.304C177.304 17.96 177.568 16.768 178.096 15.728C178.64 14.688 179.368 13.888 180.28 13.328C181.208 12.768 182.24 12.488 183.376 12.488C184.368 12.488 185.232 12.688 185.968 13.088C186.72 13.488 187.32 13.992 187.768 14.6V12.704H191.152V26H187.768V24.056C187.336 24.68 186.736 25.2 185.968 25.616C185.216 26.016 184.344 26.216 183.352 26.216C182.232 26.216 181.208 25.928 180.28 25.352C179.368 24.776 178.64 23.968 178.096 22.928C177.568 21.872 177.304 20.664 177.304 19.304ZM187.768 19.352C187.768 18.536 187.608 17.84 187.288 17.264C186.968 16.672 186.536 16.224 185.992 15.92C185.448 15.6 184.864 15.44 184.24 15.44C183.616 15.44 183.04 15.592 182.512 15.896C181.984 16.2 181.552 16.648 181.216 17.24C180.896 17.816 180.736 18.504 180.736 19.304C180.736 20.104 180.896 20.808 181.216 21.416C181.552 22.008 181.984 22.464 182.512 22.784C183.056 23.104 183.632 23.264 184.24 23.264C184.864 23.264 185.448 23.112 185.992 22.808C186.536 22.488 186.968 22.04 187.288 21.464C187.608 20.872 187.768 20.168 187.768 19.352ZM198.345 15.464V21.896C198.345 22.344 198.449 22.672 198.657 22.88C198.881 23.072 199.249 23.168 199.761 23.168H201.321V26H199.209C196.377 26 194.961 24.624 194.961 21.872V15.464H193.377V12.704H194.961V9.416H198.345V12.704H201.321V15.464H198.345ZM205.442 11.12C204.85 11.12 204.354 10.936 203.954 10.568C203.57 10.184 203.378 9.712 203.378 9.152C203.378 8.592 203.57 8.128 203.954 7.76C204.354 7.376 204.85 7.184 205.442 7.184C206.034 7.184 206.522 7.376 206.906 7.76C207.306 8.128 207.506 8.592 207.506 9.152C207.506 9.712 207.306 10.184 206.906 10.568C206.522 10.936 206.034 11.12 205.442 11.12ZM207.098 12.704V26H203.738V12.704H207.098ZM216.322 26.216C215.042 26.216 213.89 25.936 212.866 25.376C211.842 24.8 211.034 23.992 210.442 22.952C209.866 21.912 209.578 20.712 209.578 19.352C209.578 17.992 209.874 16.792 210.466 15.752C211.074 14.712 211.898 13.912 212.938 13.352C213.978 12.776 215.138 12.488 216.418 12.488C217.698 12.488 218.858 12.776 219.898 13.352C220.938 13.912 221.754 14.712 222.346 15.752C222.954 16.792 223.258 17.992 223.258 19.352C223.258 20.712 222.946 21.912 222.322 22.952C221.714 23.992 220.882 24.8 219.826 25.376C218.786 25.936 217.618 26.216 216.322 26.216ZM216.322 23.288C216.93 23.288 217.498 23.144 218.026 22.856C218.57 22.552 219.002 22.104 219.322 21.512C219.642 20.92 219.802 20.2 219.802 19.352C219.802 18.088 219.466 17.12 218.794 16.448C218.138 15.76 217.33 15.416 216.37 15.416C215.41 15.416 214.602 15.76 213.946 16.448C213.306 17.12 212.986 18.088 212.986 19.352C212.986 20.616 213.298 21.592 213.922 22.28C214.562 22.952 215.362 23.288 216.322 23.288ZM233.09 12.512C234.674 12.512 235.954 13.016 236.93 14.024C237.906 15.016 238.394 16.408 238.394 18.2V26H235.034V18.656C235.034 17.6 234.77 16.792 234.242 16.232C233.714 15.656 232.994 15.368 232.082 15.368C231.154 15.368 230.418 15.656 229.874 16.232C229.346 16.792 229.082 17.6 229.082 18.656V26H225.722V12.704H229.082V14.36C229.53 13.784 230.098 13.336 230.786 13.016C231.49 12.68 232.258 12.512 233.09 12.512Z" fill="black"/>
</svg>
