<svg width="32" height="28" viewBox="0 0 32 28" fill="none" xmlns="http://www.w3.org/2000/svg">
<mask id="path-1-outside-1_125_3127" maskUnits="userSpaceOnUse" x="0" y="-0.494629" width="32" height="29" fill="black">
<rect fill="white" y="-0.494629" width="32" height="29"/>
<path d="M20.1077 18.4891C21.5554 18.4891 22.7303 19.664 22.7303 21.1117L22.7288 22.5534C22.9042 25.8354 20.4644 27.4944 16.0868 27.4944C11.7258 27.4944 9.24254 25.8609 9.24254 22.6104V21.1117C9.24254 19.664 10.4175 18.4891 11.8652 18.4891H20.1077ZM20.1077 20.7371H11.8652C11.7658 20.7371 11.6705 20.7765 11.6002 20.8468C11.53 20.9171 11.4905 21.0124 11.4905 21.1117V22.6104C11.4905 24.3728 12.8198 25.2465 16.0868 25.2465C19.3359 25.2465 20.5753 24.4012 20.4824 22.6134V21.1117C20.4824 21.0124 20.4429 20.9171 20.3726 20.8468C20.3024 20.7765 20.2071 20.7371 20.1077 20.7371ZM3.62263 10.9959H10.1807C9.99187 11.7295 9.94356 12.4922 10.0383 13.2438H3.62263C3.52326 13.2438 3.42796 13.2833 3.3577 13.3536C3.28744 13.4238 3.24797 13.5191 3.24797 13.6185V15.1171C3.24797 16.8796 4.57726 17.7533 7.84431 17.7533C8.53668 17.7533 9.13764 17.7143 9.65317 17.6379C8.79569 18.1811 8.16952 19.0224 7.89526 19.9997L7.84431 20.0012C3.48325 20.0012 1 18.3677 1 15.1171V13.6185C1 12.1708 2.17494 10.9959 3.62263 10.9959ZM28.3502 10.9959C29.7979 10.9959 30.9729 12.1708 30.9729 13.6185L30.9714 15.0602C31.1467 18.3422 28.7069 20.0012 24.3294 20.0012L24.0761 19.9982C23.7935 18.9942 23.1414 18.1343 22.2508 17.5914C22.8307 17.6993 23.5201 17.7533 24.3294 17.7533C27.5784 17.7533 28.8178 16.908 28.7249 15.1201V13.6185C28.7249 13.5191 28.6854 13.4238 28.6152 13.3536C28.5449 13.2833 28.4496 13.2438 28.3502 13.2438H21.9361C22.0288 12.4921 21.98 11.7297 21.7922 10.9959H28.3502ZM15.9864 7.99859C16.5769 7.99859 17.1615 8.11488 17.707 8.34082C18.2524 8.56676 18.7481 8.89793 19.1655 9.31542C19.583 9.7329 19.9142 10.2285 20.1401 10.774C20.3661 11.3195 20.4824 11.9041 20.4824 12.4945C20.4824 13.0849 20.3661 13.6696 20.1401 14.215C19.9142 14.7605 19.583 15.2561 19.1655 15.6736C18.7481 16.0911 18.2524 16.4223 17.707 16.6482C17.1615 16.8742 16.5769 16.9905 15.9864 16.9905C14.794 16.9905 13.6505 16.5168 12.8073 15.6736C11.9642 14.8305 11.4905 13.6869 11.4905 12.4945C11.4905 11.3021 11.9642 10.1586 12.8073 9.31542C13.6505 8.47227 14.794 7.99859 15.9864 7.99859ZM15.9864 10.2466C15.6912 10.2466 15.3989 10.3047 15.1262 10.4177C14.8534 10.5306 14.6056 10.6962 14.3969 10.905C14.1881 11.1137 14.0226 11.3615 13.9096 11.6343C13.7966 11.907 13.7385 12.1993 13.7385 12.4945C13.7385 12.7897 13.7966 13.082 13.9096 13.3548C14.0226 13.6275 14.1881 13.8753 14.3969 14.0841C14.6056 14.2928 14.8534 14.4584 15.1262 14.5714C15.3989 14.6843 15.6912 14.7425 15.9864 14.7425C16.5826 14.7425 17.1544 14.5056 17.576 14.0841C17.9976 13.6625 18.2344 13.0907 18.2344 12.4945C18.2344 11.8983 17.9976 11.3265 17.576 10.905C17.1544 10.4834 16.5826 10.2466 15.9864 10.2466ZM7.7439 0.505371C8.93629 0.505371 10.0798 0.979048 10.923 1.8222C11.7662 2.66535 12.2398 3.80891 12.2398 5.0013C12.2398 6.1937 11.7662 7.33726 10.923 8.18041C10.0798 9.02356 8.93629 9.49723 7.7439 9.49723C6.5515 9.49723 5.40794 9.02356 4.56479 8.18041C3.72164 7.33726 3.24797 6.1937 3.24797 5.0013C3.24797 3.80891 3.72164 2.66535 4.56479 1.8222C5.40794 0.979048 6.5515 0.505371 7.7439 0.505371ZM24.229 0.505371C25.4214 0.505371 26.5649 0.979048 27.4081 1.8222C28.2512 2.66535 28.7249 3.80891 28.7249 5.0013C28.7249 6.1937 28.2512 7.33726 27.4081 8.18041C26.5649 9.02356 25.4214 9.49723 24.229 9.49723C23.0366 9.49723 21.893 9.02356 21.0499 8.18041C20.2067 7.33726 19.733 6.1937 19.733 5.0013C19.733 3.80891 20.2067 2.66535 21.0499 1.8222C21.893 0.979048 23.0366 0.505371 24.229 0.505371ZM7.7439 2.75334C7.1477 2.75334 6.57592 2.99017 6.15434 3.41175C5.73277 3.83333 5.49593 4.4051 5.49593 5.0013C5.49593 5.5975 5.73277 6.16928 6.15434 6.59085C6.57592 7.01243 7.1477 7.24927 7.7439 7.24927C8.34009 7.24927 8.91187 7.01243 9.33345 6.59085C9.75502 6.16928 9.99186 5.5975 9.99186 5.0013C9.99186 4.4051 9.75502 3.83333 9.33345 3.41175C8.91187 2.99017 8.34009 2.75334 7.7439 2.75334ZM24.229 2.75334C23.6328 2.75334 23.061 2.99017 22.6394 3.41175C22.2178 3.83333 21.981 4.4051 21.981 5.0013C21.981 5.5975 22.2178 6.16928 22.6394 6.59085C23.061 7.01243 23.6328 7.24927 24.229 7.24927C24.8252 7.24927 25.397 7.01243 25.8185 6.59085C26.2401 6.16928 26.4769 5.5975 26.4769 5.0013C26.4769 4.4051 26.2401 3.83333 25.8185 3.41175C25.397 2.99017 24.8252 2.75334 24.229 2.75334Z"/>
</mask>
<path d="M20.1077 18.4891C21.5554 18.4891 22.7303 19.664 22.7303 21.1117L22.7288 22.5534C22.9042 25.8354 20.4644 27.4944 16.0868 27.4944C11.7258 27.4944 9.24254 25.8609 9.24254 22.6104V21.1117C9.24254 19.664 10.4175 18.4891 11.8652 18.4891H20.1077ZM20.1077 20.7371H11.8652C11.7658 20.7371 11.6705 20.7765 11.6002 20.8468C11.53 20.9171 11.4905 21.0124 11.4905 21.1117V22.6104C11.4905 24.3728 12.8198 25.2465 16.0868 25.2465C19.3359 25.2465 20.5753 24.4012 20.4824 22.6134V21.1117C20.4824 21.0124 20.4429 20.9171 20.3726 20.8468C20.3024 20.7765 20.2071 20.7371 20.1077 20.7371ZM3.62263 10.9959H10.1807C9.99187 11.7295 9.94356 12.4922 10.0383 13.2438H3.62263C3.52326 13.2438 3.42796 13.2833 3.3577 13.3536C3.28744 13.4238 3.24797 13.5191 3.24797 13.6185V15.1171C3.24797 16.8796 4.57726 17.7533 7.84431 17.7533C8.53668 17.7533 9.13764 17.7143 9.65317 17.6379C8.79569 18.1811 8.16952 19.0224 7.89526 19.9997L7.84431 20.0012C3.48325 20.0012 1 18.3677 1 15.1171V13.6185C1 12.1708 2.17494 10.9959 3.62263 10.9959ZM28.3502 10.9959C29.7979 10.9959 30.9729 12.1708 30.9729 13.6185L30.9714 15.0602C31.1467 18.3422 28.7069 20.0012 24.3294 20.0012L24.0761 19.9982C23.7935 18.9942 23.1414 18.1343 22.2508 17.5914C22.8307 17.6993 23.5201 17.7533 24.3294 17.7533C27.5784 17.7533 28.8178 16.908 28.7249 15.1201V13.6185C28.7249 13.5191 28.6854 13.4238 28.6152 13.3536C28.5449 13.2833 28.4496 13.2438 28.3502 13.2438H21.9361C22.0288 12.4921 21.98 11.7297 21.7922 10.9959H28.3502ZM15.9864 7.99859C16.5769 7.99859 17.1615 8.11488 17.707 8.34082C18.2524 8.56676 18.7481 8.89793 19.1655 9.31542C19.583 9.7329 19.9142 10.2285 20.1401 10.774C20.3661 11.3195 20.4824 11.9041 20.4824 12.4945C20.4824 13.0849 20.3661 13.6696 20.1401 14.215C19.9142 14.7605 19.583 15.2561 19.1655 15.6736C18.7481 16.0911 18.2524 16.4223 17.707 16.6482C17.1615 16.8742 16.5769 16.9905 15.9864 16.9905C14.794 16.9905 13.6505 16.5168 12.8073 15.6736C11.9642 14.8305 11.4905 13.6869 11.4905 12.4945C11.4905 11.3021 11.9642 10.1586 12.8073 9.31542C13.6505 8.47227 14.794 7.99859 15.9864 7.99859ZM15.9864 10.2466C15.6912 10.2466 15.3989 10.3047 15.1262 10.4177C14.8534 10.5306 14.6056 10.6962 14.3969 10.905C14.1881 11.1137 14.0226 11.3615 13.9096 11.6343C13.7966 11.907 13.7385 12.1993 13.7385 12.4945C13.7385 12.7897 13.7966 13.082 13.9096 13.3548C14.0226 13.6275 14.1881 13.8753 14.3969 14.0841C14.6056 14.2928 14.8534 14.4584 15.1262 14.5714C15.3989 14.6843 15.6912 14.7425 15.9864 14.7425C16.5826 14.7425 17.1544 14.5056 17.576 14.0841C17.9976 13.6625 18.2344 13.0907 18.2344 12.4945C18.2344 11.8983 17.9976 11.3265 17.576 10.905C17.1544 10.4834 16.5826 10.2466 15.9864 10.2466ZM7.7439 0.505371C8.93629 0.505371 10.0798 0.979048 10.923 1.8222C11.7662 2.66535 12.2398 3.80891 12.2398 5.0013C12.2398 6.1937 11.7662 7.33726 10.923 8.18041C10.0798 9.02356 8.93629 9.49723 7.7439 9.49723C6.5515 9.49723 5.40794 9.02356 4.56479 8.18041C3.72164 7.33726 3.24797 6.1937 3.24797 5.0013C3.24797 3.80891 3.72164 2.66535 4.56479 1.8222C5.40794 0.979048 6.5515 0.505371 7.7439 0.505371ZM24.229 0.505371C25.4214 0.505371 26.5649 0.979048 27.4081 1.8222C28.2512 2.66535 28.7249 3.80891 28.7249 5.0013C28.7249 6.1937 28.2512 7.33726 27.4081 8.18041C26.5649 9.02356 25.4214 9.49723 24.229 9.49723C23.0366 9.49723 21.893 9.02356 21.0499 8.18041C20.2067 7.33726 19.733 6.1937 19.733 5.0013C19.733 3.80891 20.2067 2.66535 21.0499 1.8222C21.893 0.979048 23.0366 0.505371 24.229 0.505371ZM7.7439 2.75334C7.1477 2.75334 6.57592 2.99017 6.15434 3.41175C5.73277 3.83333 5.49593 4.4051 5.49593 5.0013C5.49593 5.5975 5.73277 6.16928 6.15434 6.59085C6.57592 7.01243 7.1477 7.24927 7.7439 7.24927C8.34009 7.24927 8.91187 7.01243 9.33345 6.59085C9.75502 6.16928 9.99186 5.5975 9.99186 5.0013C9.99186 4.4051 9.75502 3.83333 9.33345 3.41175C8.91187 2.99017 8.34009 2.75334 7.7439 2.75334ZM24.229 2.75334C23.6328 2.75334 23.061 2.99017 22.6394 3.41175C22.2178 3.83333 21.981 4.4051 21.981 5.0013C21.981 5.5975 22.2178 6.16928 22.6394 6.59085C23.061 7.01243 23.6328 7.24927 24.229 7.24927C24.8252 7.24927 25.397 7.01243 25.8185 6.59085C26.2401 6.16928 26.4769 5.5975 26.4769 5.0013C26.4769 4.4051 26.2401 3.83333 25.8185 3.41175C25.397 2.99017 24.8252 2.75334 24.229 2.75334Z" fill="#585858"/>
<path d="M20.1077 18.4891C21.5554 18.4891 22.7303 19.664 22.7303 21.1117L22.7288 22.5534C22.9042 25.8354 20.4644 27.4944 16.0868 27.4944C11.7258 27.4944 9.24254 25.8609 9.24254 22.6104V21.1117C9.24254 19.664 10.4175 18.4891 11.8652 18.4891H20.1077ZM20.1077 20.7371H11.8652C11.7658 20.7371 11.6705 20.7765 11.6002 20.8468C11.53 20.9171 11.4905 21.0124 11.4905 21.1117V22.6104C11.4905 24.3728 12.8198 25.2465 16.0868 25.2465C19.3359 25.2465 20.5753 24.4012 20.4824 22.6134V21.1117C20.4824 21.0124 20.4429 20.9171 20.3726 20.8468C20.3024 20.7765 20.2071 20.7371 20.1077 20.7371ZM3.62263 10.9959H10.1807C9.99187 11.7295 9.94356 12.4922 10.0383 13.2438H3.62263C3.52326 13.2438 3.42796 13.2833 3.3577 13.3536C3.28744 13.4238 3.24797 13.5191 3.24797 13.6185V15.1171C3.24797 16.8796 4.57726 17.7533 7.84431 17.7533C8.53668 17.7533 9.13764 17.7143 9.65317 17.6379C8.79569 18.1811 8.16952 19.0224 7.89526 19.9997L7.84431 20.0012C3.48325 20.0012 1 18.3677 1 15.1171V13.6185C1 12.1708 2.17494 10.9959 3.62263 10.9959ZM28.3502 10.9959C29.7979 10.9959 30.9729 12.1708 30.9729 13.6185L30.9714 15.0602C31.1467 18.3422 28.7069 20.0012 24.3294 20.0012L24.0761 19.9982C23.7935 18.9942 23.1414 18.1343 22.2508 17.5914C22.8307 17.6993 23.5201 17.7533 24.3294 17.7533C27.5784 17.7533 28.8178 16.908 28.7249 15.1201V13.6185C28.7249 13.5191 28.6854 13.4238 28.6152 13.3536C28.5449 13.2833 28.4496 13.2438 28.3502 13.2438H21.9361C22.0288 12.4921 21.98 11.7297 21.7922 10.9959H28.3502ZM15.9864 7.99859C16.5769 7.99859 17.1615 8.11488 17.707 8.34082C18.2524 8.56676 18.7481 8.89793 19.1655 9.31542C19.583 9.7329 19.9142 10.2285 20.1401 10.774C20.3661 11.3195 20.4824 11.9041 20.4824 12.4945C20.4824 13.0849 20.3661 13.6696 20.1401 14.215C19.9142 14.7605 19.583 15.2561 19.1655 15.6736C18.7481 16.0911 18.2524 16.4223 17.707 16.6482C17.1615 16.8742 16.5769 16.9905 15.9864 16.9905C14.794 16.9905 13.6505 16.5168 12.8073 15.6736C11.9642 14.8305 11.4905 13.6869 11.4905 12.4945C11.4905 11.3021 11.9642 10.1586 12.8073 9.31542C13.6505 8.47227 14.794 7.99859 15.9864 7.99859ZM15.9864 10.2466C15.6912 10.2466 15.3989 10.3047 15.1262 10.4177C14.8534 10.5306 14.6056 10.6962 14.3969 10.905C14.1881 11.1137 14.0226 11.3615 13.9096 11.6343C13.7966 11.907 13.7385 12.1993 13.7385 12.4945C13.7385 12.7897 13.7966 13.082 13.9096 13.3548C14.0226 13.6275 14.1881 13.8753 14.3969 14.0841C14.6056 14.2928 14.8534 14.4584 15.1262 14.5714C15.3989 14.6843 15.6912 14.7425 15.9864 14.7425C16.5826 14.7425 17.1544 14.5056 17.576 14.0841C17.9976 13.6625 18.2344 13.0907 18.2344 12.4945C18.2344 11.8983 17.9976 11.3265 17.576 10.905C17.1544 10.4834 16.5826 10.2466 15.9864 10.2466ZM7.7439 0.505371C8.93629 0.505371 10.0798 0.979048 10.923 1.8222C11.7662 2.66535 12.2398 3.80891 12.2398 5.0013C12.2398 6.1937 11.7662 7.33726 10.923 8.18041C10.0798 9.02356 8.93629 9.49723 7.7439 9.49723C6.5515 9.49723 5.40794 9.02356 4.56479 8.18041C3.72164 7.33726 3.24797 6.1937 3.24797 5.0013C3.24797 3.80891 3.72164 2.66535 4.56479 1.8222C5.40794 0.979048 6.5515 0.505371 7.7439 0.505371ZM24.229 0.505371C25.4214 0.505371 26.5649 0.979048 27.4081 1.8222C28.2512 2.66535 28.7249 3.80891 28.7249 5.0013C28.7249 6.1937 28.2512 7.33726 27.4081 8.18041C26.5649 9.02356 25.4214 9.49723 24.229 9.49723C23.0366 9.49723 21.893 9.02356 21.0499 8.18041C20.2067 7.33726 19.733 6.1937 19.733 5.0013C19.733 3.80891 20.2067 2.66535 21.0499 1.8222C21.893 0.979048 23.0366 0.505371 24.229 0.505371ZM7.7439 2.75334C7.1477 2.75334 6.57592 2.99017 6.15434 3.41175C5.73277 3.83333 5.49593 4.4051 5.49593 5.0013C5.49593 5.5975 5.73277 6.16928 6.15434 6.59085C6.57592 7.01243 7.1477 7.24927 7.7439 7.24927C8.34009 7.24927 8.91187 7.01243 9.33345 6.59085C9.75502 6.16928 9.99186 5.5975 9.99186 5.0013C9.99186 4.4051 9.75502 3.83333 9.33345 3.41175C8.91187 2.99017 8.34009 2.75334 7.7439 2.75334ZM24.229 2.75334C23.6328 2.75334 23.061 2.99017 22.6394 3.41175C22.2178 3.83333 21.981 4.4051 21.981 5.0013C21.981 5.5975 22.2178 6.16928 22.6394 6.59085C23.061 7.01243 23.6328 7.24927 24.229 7.24927C24.8252 7.24927 25.397 7.01243 25.8185 6.59085C26.2401 6.16928 26.4769 5.5975 26.4769 5.0013C26.4769 4.4051 26.2401 3.83333 25.8185 3.41175C25.397 2.99017 24.8252 2.75334 24.229 2.75334Z" stroke="black" stroke-width="0.28774" mask="url(#path-1-outside-1_125_3127)"/>
</svg>
