<svg width="29" height="30" viewBox="0 0 29 30" fill="none" xmlns="http://www.w3.org/2000/svg">
<path d="M25.5846 13.5993C24.31 14.5771 22.7485 15.1073 21.1421 15.1077C21.142 15.1077 21.142 15.1077 21.1419 15.1077L21.1419 14.9998C19.3279 15.0024 17.5804 14.317 16.2518 13.082L25.5846 13.5993ZM25.5846 13.5993C26.8592 12.6214 27.7757 11.2505 28.1921 9.69892C28.6086 8.14734 28.5016 6.50172 27.8879 5.01707C27.2742 3.53242 26.188 2.29161 24.7976 1.48691C23.4072 0.682213 21.7902 0.358552 20.1971 0.566077C18.6041 0.773602 17.124 1.50073 15.9861 2.63479C14.8482 3.76885 14.1162 5.24653 13.9033 6.83886C13.6949 8.39779 13.9956 9.98141 14.759 11.3544L11.0141 13.8492C10.2092 12.9981 9.16714 12.4071 8.02201 12.1536C6.84675 11.8934 5.61988 12.0013 4.50805 12.4626C3.39623 12.9239 2.45335 13.7163 1.80748 14.732C1.16161 15.7478 0.844069 16.9378 0.897983 18.1403C0.951897 19.3428 1.37465 20.4996 2.10883 21.4535C2.84301 22.4074 3.85301 23.1122 5.00166 23.4722C6.1503 23.8321 7.3819 23.8298 8.52917 23.4655C9.64803 23.1102 10.6338 22.4274 11.3595 21.5064L16.7985 24.2252C16.5982 25.2529 16.7689 26.3194 17.2817 27.2343C17.8083 28.1736 18.6593 28.8887 19.6753 29.2454C20.6913 29.6021 21.8025 29.576 22.8007 29.172C23.7988 28.768 24.6153 28.0138 25.0972 27.0508C25.579 26.0878 25.6931 24.9822 25.4181 23.9411C25.143 22.9 24.4977 21.995 23.6031 21.3957C22.7084 20.7964 21.626 20.5439 20.5585 20.6857C19.5188 20.8237 18.5629 21.3265 17.8604 22.1029L12.4228 19.3841C12.7308 18.2235 12.6753 16.9962 12.2638 15.868L16.2411 13.2187L25.5846 13.5993ZM21.1419 12.7338C19.835 12.7338 18.5817 12.2147 17.6576 11.2906C16.7335 10.3665 16.2144 9.11316 16.2144 7.80629C16.2144 6.49943 16.7335 5.24609 17.6576 4.322C18.5817 3.3979 19.835 2.87875 21.1419 2.87875C22.4488 2.87875 23.7021 3.3979 24.6262 4.322C25.5503 5.24609 26.0695 6.49943 26.0695 7.80629C26.0695 9.11316 25.5503 10.3665 24.6262 11.2906C23.7021 12.2147 22.4488 12.7338 21.1419 12.7338ZM6.75493 21.366C5.82963 21.366 4.94223 20.9984 4.28795 20.3442C3.63366 19.6899 3.26609 18.8025 3.26609 17.8772C3.26609 16.9519 3.63366 16.0645 4.28795 15.4102C4.94223 14.7559 5.82963 14.3883 6.75493 14.3883C7.68023 14.3883 8.56763 14.7559 9.22192 15.4102C9.8762 16.0645 10.2438 16.9519 10.2438 17.8772C10.2438 18.8025 9.8762 19.6899 9.22192 20.3442C8.56763 20.9984 7.68023 21.366 6.75493 21.366ZM23.1921 25.0707C23.1921 25.6144 22.9761 26.1359 22.5916 26.5203C22.2071 26.9048 21.6856 27.1208 21.1419 27.1208C20.5982 27.1208 20.0767 26.9048 19.6922 26.5203C19.3078 26.1359 19.0918 25.6144 19.0918 25.0707C19.0918 24.5269 19.3078 24.0055 19.6922 23.621C20.0767 23.2365 20.5982 23.0205 21.1419 23.0205C21.6856 23.0205 22.2071 23.2365 22.5916 23.621C22.9761 24.0055 23.1921 24.5269 23.1921 25.0707Z" fill="#585858" stroke="#585858" stroke-width="0.215805"/>
</svg>
