<svg width="356" height="60" viewBox="0 0 356 60" fill="none" xmlns="http://www.w3.org/2000/svg">
<path d="M60 30C60 46.5685 46.5685 60 30 60C13.4315 60 0 46.5685 0 30C0 13.4315 13.4315 0 30 0C46.5685 0 60 13.4315 60 30ZM4.5 30C4.5 44.0833 15.9167 55.5 30 55.5C44.0833 55.5 55.5 44.0833 55.5 30C55.5 15.9167 44.0833 4.5 30 4.5C15.9167 4.5 4.5 15.9167 4.5 30Z" fill="#808080"/>
<path d="M208 30C208 46.5685 194.569 60 178 60C161.431 60 148 46.5685 148 30C148 13.4315 161.431 0 178 0C194.569 0 208 13.4315 208 30ZM152.5 30C152.5 44.0833 163.917 55.5 178 55.5C192.083 55.5 203.5 44.0833 203.5 30C203.5 15.9167 192.083 4.5 178 4.5C163.917 4.5 152.5 15.9167 152.5 30Z" fill="#C4C4C4"/>
<path d="M356 30C356 46.5685 342.569 60 326 60C309.431 60 296 46.5685 296 30C296 13.4315 309.431 0 326 0C342.569 0 356 13.4315 356 30ZM300.5 30C300.5 44.0833 311.917 55.5 326 55.5C340.083 55.5 351.5 44.0833 351.5 30C351.5 15.9167 340.083 4.5 326 4.5C311.917 4.5 300.5 15.9167 300.5 30Z" fill="#C4C4C4"/>
<path d="M59.75 28H148.146L148.261 32H59.75V28Z" fill="#C4C4C4"/>
<path d="M207.6 28H297L296.001 32H207.739L207.6 28Z" fill="#C4C4C4"/>
<circle cx="23" cy="30" r="2" fill="#808080"/>
<circle cx="30" cy="30" r="2" fill="#808080"/>
<circle cx="37" cy="30" r="2" fill="#808080"/>
</svg>
